**ABCDEFGHIJKLMNOPQRSTUVWXYZabcdefghijklmnopqrstuvwxyz**************************
**PARASOLID !"#$%&'()*+,-./:;<=>?@[\]^_`{|}~0123456789**************************
**PART1;
MC=AMD64;
MC_MODEL=Intel64 Family 6 Model 94 Stepping 3, GenuineIntel;
MC_ID=unknown;
OS=Windows_NT;
OS_RELEASE=unknown;
FRU=Parasolid Version 31.1, build 278,  7-15-2019;
APPL=SOLIDWORKS 2020-2019269;
SITE=;
USER=unknown;
FORMAT=text;
GUISE=transmit;
KEY=makeProjectedPlanarWire;
FILE=makeProjectedPlanarWire.x_t;
DATE=Wed Oct 27 12:41:20 2021;
**PART2;
SCH=SCH_3101278_31100;
USFLD_SIZE=0;
**PART3;
**END_OF_HEADER*****************************************************************
T51 : TRANSMIT FILE created by modeller version 310127823 SCH_3101278_31100_1300
6222 0 12 34 CCCCCCI4 mesh1006 0 I8 polyline1008 0 CCCCCCCDI5 owner1040 0 CCCCCC
I13 boundary_mesh1006 0 I17 boundary_polyline1008 0 CCCA16 index_map_offset0 0 1
 dA9 index_map82 0 A17 node_id_index_map82 0 A20 schema_embedding_map82 0 A5 chi
ld12 0 A14 lowest_node_id0 0 1 dA16 mesh_offset_data206 0 Z1 1103 0 0 0 0 0 0 0
 0 1e3 1e-8 0 2 0 1 0 3 1 3 4 5 6 0 0 7 8 9 0 0 0 0 0 0 0 13 255 3 298 0 1 0 10
 0 0 7 10 50 255 4 3 0 10 0 0 0 +0 0 .035 0 0 1 1 0 0 30 255 5 173 0 8 11 0 0 +.
0615926926456057 -.01539817316140155 .035 .242535625036335 .970142500145331 0 29
 255 6 284 0 9 12 0 .042 -.0937689437438236 .035 19 8 CCCCCCCA5 owner12 0 Z7 297
 0 1 0 0 3 V0 16 255 8 171 0 ?13 0 14 5 0 0 1 18 255 9 282 0 15 0 16 6 ?1 17 255
 15 0 0 0 0 9 17 18 0 13 -18 16 279 0 19 9 20 12 ?1 17 19 0 21 13 22 16 23 14 0
 24 +18 20 276 0 22 16 25 26 ?1 29 12 281 0 16 26 6 .03919223593595585 -.105 .03
5 29 26 278 0 20 27 12 -.03919223593595585 -.105 .035 29 27 275 0 25 28 26 -.042
 -.0937689437438234 .035 18 25 273 0 29 20 30 27 ?1 29 28 260 0 30 31 27 -.042 .
0935323116369651 .035 18 30 258 0 32 25 33 28 ?1 29 31 257 0 33 34 28 -.02955969
349108945 .135 .035 18 33 255 0 35 30 36 31 ?1 29 34 254 0 36 37 31 .02955969349
108945 .135 .035 18 36 252 0 38 33 39 34 ?1 29 37 251 0 39 40 34 .042 .093532311
6369648 .035 18 39 249 0 17 36 41 37 ?1 29 40 248 0 41 42 37 -.039 .093532311636
9649 .035 18 41 246 0 43 39 44 40 ?1 29 42 233 0 44 45 40 -.039 -.09376894374382
31 .035 18 44 231 0 46 41 47 42 ?1 29 45 230 0 47 48 42 -.03694223593595585 -.10
2 .035 18 47 228 0 49 44 50 45 ?1 29 48 227 0 50 51 45 .03694223593595585 -.102
 .035 18 50 225 0 52 47 53 48 ?1 29 51 224 0 53 54 48 .039 -.0937689437438234 .0
35 18 53 222 0 55 50 56 51 ?1 29 54 209 0 56 57 51 .039 .0935323116369649 .035 1
8 56 207 0 58 53 59 54 ?1 29 57 206 0 59 60 54 .02745969349108945 .132 .035 18 5
9 204 0 61 56 62 57 ?1 29 60 203 0 62 0 57 -.0274596934910895 .132 .035 18 62 20
1 0 63 59 0 60 ?1 17 63 0 64 61 43 62 65 66 0 67 -15 255 64 7 0 63 10 21 17 61 0
 64 58 63 59 67 68 0 69 -17 43 0 64 63 46 41 70 71 0 65 -17 65 0 0 0 0 41 63 66
 0 0 +16 66 9 0 ?65 68 0 72 0 0 1 17 67 0 0 0 0 62 61 68 0 0 +16 68 15 0 ?67 73
 66 74 0 0 1 16 73 21 0 ?69 75 68 76 0 0 1 30 74 17 0 68 72 76 0 +0 .132 .035 -1
 0 0 30 72 11 0 66 0 74 0 +-.0615226545789812 .01845679637369435 .035 -.28734788
55663455 -.957826285221151 0 30 76 23 0 73 74 77 0 +.0615226545789812 .018456796
3736944 .035 -.287347885566346 .957826285221151 0 30 77 29 0 75 76 78 0 +.039 0
 .035 0 1 0 16 75 27 0 ?79 80 73 77 0 0 1 30 78 59 0 80 77 81 0 +.05876916323384
07 -.0146922908084601 .035 .242535625036332 .970142500145332 0 16 80 57 0 ?82 83
 75 78 0 0 1 30 81 65 0 83 78 84 0 +-3831750625086925e-32 -.102 .035 1 -37566182
59889145e-31 0 16 83 63 0 ?85 86 80 81 0 0 1 30 84 71 0 86 81 87 0 +-.0587691632
338406 -.01469229080846004 .035 .242535625036331 -.970142500145332 0 16 86 69 0
 ?88 71 83 84 0 0 1 30 87 77 0 71 84 89 0 +-.039 1540822271463575e-31 .035 -3950
826337086125e-30 -1 0 16 71 75 0 ?70 18 86 87 0 0 1 30 89 107 0 18 87 90 0 +.042
 0 .035 0 1 0 16 18 105 0 ?17 91 71 89 0 0 1 30 90 113 0 91 89 92 0 +.0642749481
569628 .01928248444708885 .035 -.2873478855663455 .957826285221151 0 16 91 111 0
 ?38 93 18 90 0 0 1 30 92 119 0 93 90 94 0 +0 .135 .035 -1 0 0 16 93 117 0 ?35 9
5 91 92 0 0 1 30 94 125 0 95 92 96 0 +-.0642749481569628 .0192824844470889 .035
 -.287347885566346 -.957826285221151 0 16 95 123 0 ?32 97 93 94 0 0 1 30 96 131
 0 97 94 98 0 +-.042000000000001 46329967615418e-29 .035 -1103094467033736e-29 -
1 0 16 97 129 0 ?29 99 95 96 0 0 1 30 98 161 0 99 96 11 0 +-.0615926926456054 -.
0153981731614013 .035 .242535625036332 -.970142500145332 0 16 99 159 0 ?22 14 97
 98 0 0 1 30 11 167 0 14 98 5 0 +-371800098928186e-31 -.105 .035 1 -354095332312
558e-30 0 16 14 165 0 ?19 8 99 11 0 0 1 17 22 0 21 19 29 20 100 99 0 23 +15 21 8
 0 17 10 0 17 29 0 21 22 32 25 101 97 0 100 +17 100 0 0 0 0 25 22 99 0 0 -17 23
 0 0 0 0 20 19 14 0 0 -17 32 0 21 29 35 30 102 95 0 101 +17 101 0 0 0 0 30 29 97
 0 0 -17 35 0 21 32 38 33 103 93 0 102 +17 102 0 0 0 0 33 32 95 0 0 -17 38 0 21
 35 17 36 104 91 0 103 +17 103 0 0 0 0 36 35 93 0 0 -17 17 0 21 38 13 39 15 18 0
 104 +17 104 0 0 0 0 39 38 91 0 0 -17 13 0 21 17 19 9 24 8 0 0 +17 24 0 0 0 0 16
 13 8 0 0 -14 255 10 1 0 ?0 0 64 3 4 +0 0 0 0 3 17 70 0 0 0 0 44 43 71 0 0 +17 8
8 0 0 0 0 47 46 86 0 0 +17 46 0 64 43 49 44 88 86 0 70 -17 49 0 64 46 52 47 85 8
3 0 88 -17 52 0 64 49 55 50 82 80 0 85 -17 85 0 0 0 0 50 49 83 0 0 +17 55 0 64 5
2 58 53 79 75 0 82 -17 82 0 0 0 0 53 52 80 0 0 +17 58 0 64 55 61 56 69 73 0 79 -
17 79 0 0 0 0 56 55 75 0 0 +17 69 0 0 0 0 59 58 73 0 0 +1 0 
